<svg width="3566" height="1586" viewBox="0 0 3566 1586" fill="none" xmlns="http://www.w3.org/2000/svg">
<path d="M830.725 401.872L462.746 1585.48H0.268555L488.516 0.811523H1896.59L1567.46 401.872H830.725Z" fill="white"/>
<path d="M1244.88 802.946H840.641L1461.79 1585.48H1897.79L1244.88 802.946Z" fill="white"/>
<path d="M2947.01 0.811523H2081.42L1751.56 402.079C1998.05 402.079 2906.18 401.348 2973.04 401.348C3065.47 401.348 3163.33 448.401 3163.33 594.553C3163.33 740.705 3036.86 798.611 2947.01 802.046L2090.47 804.646H1829.69C1704.01 804.646 1502.45 803.314 1429.38 803.314L2081.9 1584.5V1085.36H2910.04C2986.04 1091.52 3181.18 1073.04 3353.72 949.792C3569.4 795.737 3637.18 469.14 3476.96 241.138C3348.79 58.7363 3070.26 4.91966 2947.01 0.811523Z" fill="white"/>
</svg>
